<svg width="2485" height="463" viewBox="0 0 2485 463" fill="none" xmlns="http://www.w3.org/2000/svg">
<path d="M399.35 0.140137C434.32 0.140137 462.66 28.4861 462.66 63.4521V399.49C462.66 434.46 434.32 462.8 399.35 462.8H63.312C28.346 462.8 0 434.46 0 399.49V63.4521C0 28.4861 28.346 0.140137 63.312 0.140137H399.35ZM230.502 243.03C228.982 243.03 226.814 244.25 226.785 244.27C221.828 246.75 220.31 247.66 213.789 253.81C207.246 259.98 200.419 268.92 195.884 281.01L195.85 281.1L195.83 281.19C194.511 287.34 194.63 297.96 205.797 327.73C208.577 335.15 210.664 341.4 212.427 346.63C214.183 351.84 215.635 356.09 217.137 359.41C218.637 362.73 220.249 365.27 222.398 366.96C224.586 368.68 227.202 369.43 230.499 369.43H230.504C233.801 369.43 236.417 368.68 238.605 366.96C240.754 365.27 242.367 362.73 243.867 359.41C245.369 356.09 246.821 351.84 248.577 346.63C250.34 341.4 252.426 335.15 255.206 327.73C266.373 297.96 266.493 287.34 265.174 281.19C263.951 275.48 264.979 280.29 265.135 281.01C265.137 281.02 265.123 281.02 265.12 281.01C260.585 268.92 253.758 259.99 247.215 253.81C240.694 247.66 239.177 246.75 234.22 244.27C234.192 244.25 232.022 243.03 230.502 243.03ZM327.601 205.93C297.83 194.77 287.21 194.65 281.055 195.97C280.994 195.98 280.934 195.99 280.876 196C280.885 196 280.886 196.02 280.878 196.02C268.784 200.56 259.85 207.38 253.675 213.93C247.522 220.45 246.612 221.96 244.134 226.92C244.114 226.95 242.895 229.12 242.895 230.64C242.895 232.16 244.114 234.32 244.134 234.35C246.612 239.31 247.521 240.83 253.675 247.35C259.85 253.89 268.784 260.72 280.878 265.26L280.965 265.29L281.055 265.31C287.21 266.63 297.829 266.51 327.601 255.34C335.01 252.56 341.27 250.48 346.5 248.71C351.71 246.96 355.95 245.51 359.28 244C362.59 242.5 365.13 240.89 366.82 238.74C368.55 236.55 369.3 233.94 369.3 230.64C369.3 227.34 368.55 224.72 366.82 222.53C365.13 220.39 362.59 218.77 359.28 217.27C355.95 215.77 351.71 214.32 346.5 212.56C341.27 210.8 335.01 208.71 327.601 205.93ZM179.942 195.96C173.787 194.64 163.168 194.76 133.396 205.93C125.985 208.71 119.731 210.8 114.5 212.56C109.288 214.32 105.041 215.77 101.721 217.27C98.404 218.77 95.865 220.38 94.172 222.53C92.448 224.72 91.701 227.34 91.7 230.63V230.64C91.701 233.94 92.448 236.55 94.172 238.74C95.865 240.89 98.404 242.5 101.721 244C105.041 245.5 109.289 246.95 114.5 248.71C119.731 250.47 125.985 252.56 133.396 255.34C163.168 266.51 173.787 266.63 179.942 265.31C180.003 265.29 180.062 265.28 180.12 265.27C180.111 265.27 180.111 265.26 180.119 265.25C192.213 260.72 201.146 253.89 207.321 247.35C213.474 240.83 214.384 239.31 216.862 234.35C216.862 234.35 218.101 232.17 218.102 230.64C218.102 229.11 216.872 226.93 216.862 226.92C214.384 221.96 213.474 220.44 207.321 213.92C201.146 207.38 192.213 200.55 180.119 196.02L180.031 195.98L179.942 195.96ZM230.497 91.8471C227.595 91.8471 224.708 92.4921 222.391 94.3181C216.606 98.8771 214.641 108.053 212.419 114.647C210.656 119.878 208.57 126.131 205.79 133.542C194.623 163.31 194.504 173.93 195.822 180.09C196.704 184.2 212.716 209.98 226.776 217.01C226.808 217.03 228.975 218.25 230.494 218.25C232.025 218.25 234.212 217.01 234.212 217.01C247.482 210.37 261.996 194.75 265.166 180.09C266.485 173.93 266.366 163.31 255.199 133.542C252.419 126.131 250.332 119.878 248.569 114.647C246.347 108.053 244.383 98.8761 238.598 94.3181C236.41 92.5941 233.794 91.8481 230.497 91.8471Z" fill="#111111"/>
<path d="M754.01 135.225V180.21H706.22V310.93C706.22 318.74 708.25 324.21 712.31 327.33C716.68 330.46 723.87 332.02 733.86 332.02H754.01V377C741.2 378.25 730.9 378.87 723.09 378.87C696.85 378.87 677.64 374.03 665.45 364.35C653.58 354.35 647.65 338.58 647.65 317.02V180.21H610.16V135.225H647.65V64.942H706.22V135.225H754.01ZM921.18 129.603C947.42 129.603 968.04 137.256 983.03 152.56C998.34 167.56 1005.99 188.95 1005.99 216.75V377H946.95V226.59C946.95 195.98 931.8 180.68 901.5 180.68C886.51 180.68 873.7 186.14 863.08 197.07C852.77 207.7 847.62 222.53 847.62 241.59V377H788.58V43.3879H847.62V167.56C866.05 142.25 890.57 129.603 921.18 129.603ZM1271.38 377H1212.34C1209.53 372 1207.35 362.16 1205.78 347.48C1189.54 370.91 1163.61 382.62 1128 382.62C1101.45 382.62 1080.21 376.22 1064.28 363.41C1048.66 350.6 1040.85 332.8 1040.85 310C1040.85 265.95 1071.78 240.81 1133.63 234.56L1170.17 231.28C1182.36 229.72 1191.1 226.91 1196.41 222.85C1201.72 218.47 1204.38 212.07 1204.38 203.63C1204.38 193.33 1200.94 185.83 1194.07 181.14C1187.51 176.15 1176.26 173.65 1160.33 173.65C1143.15 173.65 1130.81 176.61 1123.32 182.55C1115.82 188.17 1111.45 198.01 1110.2 212.07H1052.1C1055.53 157.09 1091.77 129.603 1160.8 129.603C1227.96 129.603 1261.54 153.81 1261.54 202.23V331.08C1261.54 352.32 1264.82 367.63 1271.38 377ZM1142.06 340.45C1160.49 340.45 1175.48 335.45 1187.04 325.46C1198.6 315.15 1204.38 300.47 1204.38 281.41V259.39C1198.76 264.39 1189.54 267.67 1176.73 269.23L1144.87 272.98C1129.25 274.85 1118.01 278.6 1111.14 284.23C1104.58 289.54 1101.3 297.35 1101.3 307.65C1101.3 317.96 1104.73 326.08 1111.6 332.02C1118.79 337.64 1128.94 340.45 1142.06 340.45ZM1425.27 135.225V180.21H1377.48V310.93C1377.48 318.74 1379.51 324.21 1383.57 327.33C1387.94 330.46 1395.13 332.02 1405.12 332.02H1425.27V377C1412.47 378.25 1402.16 378.87 1394.35 378.87C1368.11 378.87 1348.9 374.03 1336.72 364.35C1324.85 354.35 1318.91 338.58 1318.91 317.02V180.21H1281.43V135.225H1318.91V64.942H1377.48V135.225H1425.27ZM1512.32 47.6049C1509.51 58.5379 1505.91 70.4079 1501.54 83.2159C1497.17 96.0229 1492.33 108.83 1487.02 121.637C1482.02 134.132 1477.02 146 1472.02 157.25H1441.57C1443.75 148.5 1445.94 139.13 1448.13 129.134C1450.62 119.138 1452.81 109.142 1454.69 99.1459C1456.87 88.8379 1458.75 78.8419 1460.31 69.1589C1462.18 59.4749 1463.74 50.5729 1464.99 42.4509H1509.04L1512.32 47.6049ZM1608.75 383.56C1538.15 383.56 1501.29 355.76 1498.17 300.16H1555.8C1557.36 315.15 1562.21 325.77 1570.33 332.02C1578.76 338.27 1591.88 341.39 1609.69 341.39C1641.55 341.39 1657.48 331.71 1657.48 312.34C1657.48 303.59 1654.04 296.88 1647.17 292.19C1640.3 287.51 1627.96 283.6 1610.15 280.48L1582.51 275.79C1529.72 267.05 1503.32 242.68 1503.32 202.7C1503.32 179.89 1512.07 162.09 1529.56 149.28C1547.06 136.162 1571.73 129.603 1603.59 129.603C1672.63 129.603 1708.24 156.94 1710.43 211.6H1654.67C1654.04 197.23 1649.51 187.08 1641.08 181.14C1632.65 174.9 1620.15 171.77 1603.59 171.77C1575.48 171.77 1561.42 181.14 1561.42 199.89C1561.42 208.01 1564.55 214.41 1570.8 219.1C1577.04 223.47 1587.35 226.91 1601.72 229.4L1632.18 234.09C1661.54 239.4 1682.78 247.83 1695.9 259.39C1709.33 270.95 1716.05 287.04 1716.05 307.65C1716.05 332.02 1706.68 350.76 1687.93 363.88C1669.19 377 1642.8 383.56 1608.75 383.56ZM2124.56 129.603C2151.11 129.603 2171.72 137.412 2186.4 153.03C2201.4 168.65 2208.9 190.05 2208.9 217.22V377H2149.86V226.59C2149.86 195.98 2135.96 180.68 2108.16 180.68C2093.16 180.68 2080.98 186.14 2071.61 197.07C2062.55 207.7 2058.02 223.31 2058.02 243.93V377H1999.45V226.59C1999.45 195.98 1985.39 180.68 1957.28 180.68C1942.6 180.68 1930.57 186.14 1921.2 197.07C1912.14 207.7 1907.61 223.31 1907.61 243.93V377H1848.58V135.225H1905.74V169.9C1922.3 143.03 1945.25 129.603 1974.62 129.603C2011.48 129.603 2036.47 144.6 2049.59 174.58C2067.7 144.6 2092.69 129.603 2124.56 129.603ZM2484.92 260.33V274.39H2304.06C2306.24 295 2312.65 310.62 2323.27 321.24C2334.2 331.55 2348.73 336.7 2366.84 336.7C2393.71 336.7 2412.14 325.15 2422.13 302.03H2478.83C2472.58 326.71 2459.46 346.39 2439.47 361.07C2419.48 375.44 2395.11 382.62 2366.37 382.62C2330.45 382.62 2301.4 371.06 2279.22 347.95C2257.04 324.83 2245.96 294.22 2245.96 256.11C2245.96 218 2256.89 187.39 2278.75 164.28C2300.93 141.16 2329.83 129.603 2365.44 129.603C2401.98 129.603 2431.03 141.63 2452.59 165.68C2474.14 189.73 2484.92 221.28 2484.92 260.33ZM2364.97 175.52C2330.3 175.52 2310.15 194.73 2304.52 233.15H2425.88C2423.38 215.35 2416.82 201.29 2406.2 190.98C2395.58 180.68 2381.84 175.52 2364.97 175.52Z" fill="#111111"/>
</svg>
