<svg width="32" height="32" viewBox="0 0 32 32" fill="none" xmlns="http://www.w3.org/2000/svg">
<path d="M26.5595 1.86743H5.3949V30.0869H26.5595V1.86743Z" fill="#1E2025"/>
<path d="M27.6211 0C30.0399 0 32 1.96056 32 4.37899V27.6211C32 30.0399 30.0399 32 27.6211 32H4.37886C1.96084 32 0 30.0399 0 27.6211V4.37899C0 1.96049 1.96084 0 4.37886 0H27.6211ZM15.9412 16.7995C15.8354 16.7995 15.6846 16.8853 15.6846 16.8853C15.3415 17.0568 15.2364 17.1198 14.7855 17.5452C14.3331 17.9719 13.8607 18.5902 13.5467 19.4264L13.5446 19.4327L13.5432 19.4389C13.452 19.8643 13.4603 20.5988 14.2328 22.6578C14.4251 23.1711 14.5697 23.6033 14.6914 23.9651C14.8124 24.3254 14.9134 24.6194 15.0172 24.849C15.1209 25.0786 15.2323 25.2543 15.381 25.3712C15.5324 25.4902 15.713 25.542 15.9412 25.542H15.9419C16.1695 25.542 16.3507 25.4902 16.5021 25.3712C16.6508 25.2543 16.7622 25.0786 16.8659 24.849C16.9697 24.6194 17.07 24.3254 17.1917 23.9651C17.3134 23.6033 17.458 23.1711 17.6503 22.6578C18.4222 20.5988 18.4305 19.8643 18.3392 19.4389C18.2548 19.044 18.326 19.3766 18.3371 19.4264C18.3371 19.4271 18.3357 19.4271 18.3357 19.4264C18.0224 18.5902 17.55 17.9719 17.0977 17.5452C16.646 17.1198 16.5416 17.0568 16.1985 16.8853C16.1978 16.8846 16.047 16.7995 15.9412 16.7995ZM22.6578 14.2335C20.5988 13.4616 19.8643 13.4533 19.4389 13.5446C19.044 13.629 19.376 13.5578 19.4264 13.5474C19.4271 13.5467 19.4271 13.5481 19.4264 13.5481C18.5902 13.8621 17.9719 14.3338 17.5452 14.7868C17.1198 15.2378 17.0568 15.3422 16.8853 15.6853C16.8853 15.6853 16.7995 15.8368 16.7995 15.9426C16.7995 16.0484 16.8853 16.1999 16.8853 16.1999C17.0568 16.5423 17.1198 16.6474 17.5452 17.0983C17.9719 17.5514 18.5902 18.0231 19.4264 18.3371L19.4327 18.3392L19.4389 18.3406C19.8643 18.4319 20.5988 18.4235 22.6578 17.651C23.1711 17.4587 23.6033 17.3148 23.9651 17.1924C24.3254 17.0714 24.6194 16.9711 24.849 16.8666C25.0786 16.7629 25.2536 16.6515 25.3712 16.5028C25.4902 16.3514 25.542 16.1708 25.542 15.9426C25.542 15.7143 25.4902 15.5331 25.3712 15.3824C25.2536 15.2336 25.0786 15.1216 24.849 15.0179C24.6194 14.9141 24.3254 14.8138 23.9651 14.6921C23.6033 14.5704 23.1711 14.4258 22.6578 14.2335ZM12.4456 13.5446C12.0202 13.4533 11.2857 13.4616 9.22665 14.2335C8.71344 14.4258 8.28116 14.5704 7.91942 14.6921C7.55907 14.8138 7.26512 14.9141 7.03549 15.0179C6.80586 15.1216 6.63018 15.233 6.51329 15.3817C6.39433 15.5331 6.34245 15.7143 6.34245 15.9419V15.9426C6.34245 16.1708 6.39433 16.3514 6.51329 16.5028C6.63018 16.6515 6.80586 16.7629 7.03549 16.8666C7.26512 16.9704 7.55907 17.0707 7.91942 17.1924C8.28116 17.3141 8.71344 17.4587 9.22665 17.651C11.2857 18.4235 12.0202 18.4319 12.4456 18.3406C12.8405 18.2555 12.5085 18.3267 12.458 18.3378C12.4574 18.3378 12.4574 18.3371 12.458 18.3371C13.2943 18.0231 13.9126 17.5507 14.3393 17.0983C14.7647 16.6474 14.8276 16.5423 14.9992 16.1992C14.9992 16.1992 15.0849 16.0484 15.0849 15.9426C15.0849 15.8368 14.9999 15.686 14.9992 15.6853C14.8276 15.3422 14.7647 15.2371 14.3393 14.7861C13.9126 14.3338 13.2943 13.8614 12.458 13.5481L12.4518 13.5453L12.4456 13.5446ZM15.9419 6.34294C15.7413 6.34294 15.5414 6.38762 15.3817 6.51392C14.9812 6.82917 14.8456 7.46383 14.6921 7.91991C14.5697 8.28171 14.4258 8.7142 14.2335 9.22678C13.4609 11.2857 13.4526 12.0202 13.5439 12.4463C13.6048 12.7306 14.7121 14.5136 15.6846 14.9999C15.6846 14.9999 15.8361 15.0856 15.9419 15.0856C16.047 15.0856 16.1978 15.0006 16.1992 14.9999C17.117 14.5406 18.1206 13.4603 18.3399 12.4463C18.4312 12.0202 18.4229 11.2857 17.6503 9.22678C17.458 8.7142 17.3141 8.28171 17.1924 7.91991C17.0382 7.46383 16.9026 6.82917 16.5021 6.51392C16.3514 6.39467 16.1701 6.34301 15.9419 6.34294Z" fill="#FFE2AF"/>
</svg>
