<svg width="2485" height="463" viewBox="0 0 2485 463" fill="none" xmlns="http://www.w3.org/2000/svg">
<path d="M399.35 0C434.32 0 462.66 28.346 462.66 63.312V399.35C462.66 434.32 434.32 462.66 399.35 462.66H63.312C28.346 462.66 0 434.32 0 399.35V63.312C0 28.346 28.346 0 63.312 0H399.35ZM230.502 242.89C228.982 242.89 226.814 244.11 226.785 244.13C221.828 246.61 220.31 247.52 213.789 253.67C207.246 259.84 200.419 268.78 195.884 280.87L195.85 280.96L195.83 281.05C194.511 287.2 194.63 297.82 205.797 327.59C208.577 335.01 210.664 341.26 212.427 346.49C214.183 351.7 215.635 355.95 217.137 359.27C218.637 362.59 220.249 365.13 222.398 366.82C224.586 368.54 227.202 369.29 230.499 369.29H230.504C233.801 369.29 236.417 368.54 238.605 366.82C240.754 365.13 242.367 362.59 243.867 359.27C245.369 355.95 246.821 351.7 248.577 346.49C250.34 341.26 252.426 335.01 255.206 327.59C266.373 297.82 266.493 287.2 265.174 281.05C263.951 275.34 264.979 280.15 265.135 280.87C265.137 280.88 265.123 280.88 265.12 280.87C260.585 268.78 253.758 259.85 247.215 253.67C240.694 247.52 239.177 246.61 234.22 244.13C234.192 244.11 232.022 242.89 230.502 242.89ZM327.601 205.79C297.83 194.63 287.21 194.51 281.055 195.83C280.994 195.84 280.934 195.85 280.876 195.86C280.885 195.86 280.886 195.88 280.878 195.88C268.784 200.42 259.85 207.24 253.675 213.79C247.522 220.31 246.612 221.82 244.134 226.78C244.114 226.81 242.895 228.98 242.895 230.5C242.895 232.02 244.114 234.18 244.134 234.21C246.612 239.17 247.521 240.69 253.675 247.21C259.85 253.75 268.784 260.58 280.878 265.12L280.965 265.15L281.055 265.17C287.21 266.49 297.829 266.37 327.601 255.2C335.01 252.42 341.27 250.34 346.5 248.57C351.71 246.82 355.95 245.37 359.28 243.86C362.59 242.36 365.13 240.75 366.82 238.6C368.55 236.41 369.3 233.8 369.3 230.5C369.3 227.2 368.55 224.58 366.82 222.39C365.13 220.25 362.59 218.63 359.28 217.13C355.95 215.63 351.71 214.18 346.5 212.42C341.27 210.66 335.01 208.57 327.601 205.79ZM179.942 195.82C173.787 194.5 163.168 194.62 133.396 205.79C125.985 208.57 119.731 210.66 114.5 212.42C109.288 214.18 105.041 215.63 101.721 217.13C98.404 218.63 95.865 220.24 94.172 222.39C92.448 224.58 91.701 227.2 91.7 230.49V230.5C91.701 233.8 92.448 236.41 94.172 238.6C95.865 240.75 98.404 242.36 101.721 243.86C105.041 245.36 109.289 246.81 114.5 248.57C119.731 250.33 125.985 252.42 133.396 255.2C163.168 266.37 173.787 266.49 179.942 265.17C180.003 265.15 180.062 265.14 180.12 265.13C180.111 265.13 180.111 265.12 180.119 265.11C192.213 260.58 201.146 253.75 207.321 247.21C213.474 240.69 214.384 239.17 216.862 234.21C216.862 234.21 218.101 232.03 218.102 230.5C218.102 228.97 216.872 226.79 216.862 226.78C214.384 221.82 213.474 220.3 207.321 213.78C201.146 207.24 192.213 200.41 180.119 195.88L180.031 195.84L179.942 195.82ZM230.497 91.707C227.595 91.707 224.708 92.352 222.391 94.178C216.606 98.737 214.641 107.913 212.419 114.507C210.656 119.738 208.57 125.991 205.79 133.402C194.623 163.17 194.504 173.79 195.822 179.95C196.704 184.06 212.716 209.84 226.776 216.87C226.808 216.89 228.975 218.11 230.494 218.11C232.025 218.11 234.212 216.87 234.212 216.87C247.482 210.23 261.996 194.61 265.166 179.95C266.485 173.79 266.366 163.17 255.199 133.402C252.419 125.991 250.332 119.738 248.569 114.507C246.347 107.913 244.383 98.736 238.598 94.178C236.41 92.454 233.794 91.708 230.497 91.707Z" fill="#FFE2AF"/>
<path d="M754.01 135.085V180.07H706.22V310.79C706.22 318.6 708.25 324.07 712.31 327.19C716.68 330.32 723.87 331.88 733.86 331.88H754.01V376.86C741.2 378.11 730.9 378.73 723.09 378.73C696.85 378.73 677.64 373.89 665.46 364.21C653.58 354.21 647.65 338.44 647.65 316.88V180.07H610.17V135.085H647.65V64.8021H706.22V135.085H754.01ZM921.18 129.463C947.42 129.463 968.04 137.116 983.03 152.42C998.34 167.42 1005.99 188.81 1005.99 216.61V376.86H946.95V226.45C946.95 195.84 931.8 180.54 901.5 180.54C886.51 180.54 873.7 186 863.08 196.93C852.77 207.56 847.62 222.39 847.62 241.45V376.86H788.58V43.248H847.62V167.42C866.05 142.11 890.57 129.463 921.18 129.463ZM1271.38 376.86H1212.34C1209.53 371.86 1207.35 362.02 1205.78 347.34C1189.54 370.77 1163.61 382.48 1128 382.48C1101.45 382.48 1080.21 376.08 1064.28 363.27C1048.66 350.46 1040.85 332.66 1040.85 309.86C1040.85 265.81 1071.78 240.67 1133.63 234.42L1170.17 231.14C1182.36 229.58 1191.1 226.77 1196.41 222.71C1201.72 218.33 1204.38 211.93 1204.38 203.49C1204.38 193.19 1200.94 185.69 1194.07 181C1187.51 176.01 1176.26 173.51 1160.33 173.51C1143.15 173.51 1130.82 176.47 1123.32 182.41C1115.82 188.03 1111.45 197.87 1110.2 211.93H1052.1C1055.53 156.95 1091.77 129.463 1160.8 129.463C1227.96 129.463 1261.54 153.67 1261.54 202.09V330.94C1261.54 352.18 1264.82 367.49 1271.38 376.86ZM1142.06 340.31C1160.49 340.31 1175.48 335.31 1187.04 325.32C1198.6 315.01 1204.38 300.33 1204.38 281.27V259.25C1198.76 264.25 1189.54 267.53 1176.73 269.09L1144.87 272.84C1129.25 274.71 1118.01 278.46 1111.14 284.09C1104.58 289.4 1101.3 297.21 1101.3 307.51C1101.3 317.82 1104.73 325.94 1111.6 331.88C1118.79 337.5 1128.94 340.31 1142.06 340.31ZM1425.27 135.085V180.07H1377.48V310.79C1377.48 318.6 1379.51 324.07 1383.57 327.19C1387.94 330.32 1395.13 331.88 1405.13 331.88H1425.27V376.86C1412.47 378.11 1402.16 378.73 1394.35 378.73C1368.11 378.73 1348.9 373.89 1336.72 364.21C1324.85 354.21 1318.91 338.44 1318.91 316.88V180.07H1281.43V135.085H1318.91V64.8021H1377.48V135.085H1425.27ZM1512.32 47.465C1509.51 58.398 1505.91 70.2681 1501.54 83.076C1497.17 95.883 1492.33 108.69 1487.02 121.497C1482.02 133.992 1477.02 145.86 1472.02 157.11H1441.57C1443.75 148.36 1445.94 138.99 1448.13 128.994C1450.63 118.998 1452.81 109.002 1454.69 99.006C1456.87 88.698 1458.75 78.702 1460.31 69.019C1462.18 59.335 1463.74 50.433 1464.99 42.311H1509.04L1512.32 47.465ZM1608.75 383.42C1538.15 383.42 1501.29 355.62 1498.17 300.02H1555.8C1557.36 315.01 1562.21 325.63 1570.33 331.88C1578.76 338.13 1591.88 341.25 1609.69 341.25C1641.55 341.25 1657.48 331.57 1657.48 312.2C1657.48 303.45 1654.04 296.74 1647.17 292.05C1640.3 287.37 1627.96 283.46 1610.15 280.34L1582.51 275.65C1529.72 266.91 1503.32 242.54 1503.32 202.56C1503.32 179.75 1512.07 161.95 1529.56 149.14C1547.06 136.022 1571.73 129.463 1603.6 129.463C1672.63 129.463 1708.24 156.8 1710.43 211.46H1654.67C1654.04 197.09 1649.51 186.94 1641.08 181C1632.65 174.76 1620.15 171.63 1603.6 171.63C1575.48 171.63 1561.43 181 1561.43 199.75C1561.43 207.87 1564.55 214.27 1570.8 218.96C1577.04 223.33 1587.35 226.77 1601.72 229.26L1632.18 233.95C1661.54 239.26 1682.78 247.69 1695.9 259.25C1709.33 270.81 1716.05 286.9 1716.05 307.51C1716.05 331.88 1706.68 350.62 1687.94 363.74C1669.19 376.86 1642.8 383.42 1608.75 383.42ZM2124.56 129.463C2151.11 129.463 2171.72 137.272 2186.41 152.89C2201.4 168.51 2208.9 189.91 2208.9 217.08V376.86H2149.86V226.45C2149.86 195.84 2135.96 180.54 2108.16 180.54C2093.16 180.54 2080.98 186 2071.61 196.93C2062.55 207.56 2058.02 223.17 2058.02 243.79V376.86H1999.45V226.45C1999.45 195.84 1985.39 180.54 1957.28 180.54C1942.6 180.54 1930.57 186 1921.2 196.93C1912.14 207.56 1907.61 223.17 1907.61 243.79V376.86H1848.58V135.085H1905.74V169.76C1922.3 142.89 1945.26 129.463 1974.62 129.463C2011.48 129.463 2036.47 144.46 2049.59 174.44C2067.7 144.46 2092.69 129.463 2124.56 129.463ZM2484.92 260.19V274.25H2304.06C2306.24 294.86 2312.65 310.48 2323.27 321.1C2334.2 331.41 2348.73 336.56 2366.84 336.56C2393.71 336.56 2412.14 325.01 2422.13 301.89H2478.83C2472.58 326.57 2459.46 346.25 2439.47 360.93C2419.48 375.3 2395.11 382.48 2366.37 382.48C2330.45 382.48 2301.4 370.92 2279.22 347.81C2257.04 324.69 2245.96 294.08 2245.96 255.97C2245.96 217.86 2256.89 187.25 2278.75 164.14C2300.93 141.02 2329.83 129.463 2365.44 129.463C2401.98 129.463 2431.04 141.49 2452.59 165.54C2474.14 189.59 2484.92 221.14 2484.92 260.19ZM2364.97 175.38C2330.3 175.38 2310.15 194.59 2304.53 233.01H2425.88C2423.38 215.21 2416.82 201.15 2406.2 190.84C2395.58 180.54 2381.84 175.38 2364.97 175.38Z" fill="#FFE2AF"/>
</svg>
