<svg width="444" height="444" viewBox="0 0 444 444" fill="none" xmlns="http://www.w3.org/2000/svg">
<path d="M221.66 0C226.93 0.001 231.1 1.19302 234.6 3.94702C243.84 11.227 246.98 25.882 250.52 36.412C253.34 44.767 256.67 54.753 261.11 66.59C278.95 114.137 279.14 131.096 277.03 140.926C271.97 164.34 248.79 189.29 227.59 199.89C227.59 199.89 224.1 201.87 221.66 201.87C219.21 201.87 215.72 199.89 215.72 199.89C193.26 188.66 167.69 147.5 166.29 140.926C164.18 131.096 164.37 114.137 182.2 66.59C186.64 54.753 189.97 44.767 192.79 36.412C196.34 25.881 199.48 11.227 208.72 3.94702C212.42 1.03102 217.03 0 221.66 0Z" fill="#FFE2AF"/>
<path d="M443.32 221.66C443.32 226.92 442.12 231.1 439.37 234.6C436.67 238.03 432.61 240.6 427.32 243C422.01 245.4 415.23 247.72 406.91 250.52C398.55 253.34 388.57 256.67 376.73 261.11C329.18 278.94 312.22 279.13 302.39 277.03L302.25 277L302.11 276.94C282.79 269.7 268.53 258.8 258.67 248.34C248.84 237.93 247.39 235.51 243.43 227.59C243.43 227.59 241.45 224.1 241.45 221.65C241.45 219.21 243.43 215.72 243.43 215.72C247.39 207.8 248.84 205.38 258.67 194.96C268.53 184.51 282.8 173.61 302.11 166.37C302.12 166.36 302.12 166.34 302.11 166.34C300.95 166.59 293.27 168.23 302.39 166.28C312.22 164.18 329.18 164.37 376.73 182.2C388.57 186.64 398.55 189.97 406.91 192.79C415.23 195.59 422.01 197.91 427.32 200.31C432.61 202.71 436.67 205.28 439.37 208.71C442.13 212.21 443.32 216.38 443.32 221.65V221.66Z" fill="#FFE2AF"/>
<path d="M221.65 443.32C216.38 443.32 212.2 442.12 208.71 439.37C205.28 436.67 202.7 432.61 200.3 427.31C197.91 422.01 195.59 415.23 192.78 406.9C189.97 398.55 186.63 388.56 182.19 376.73C164.36 329.18 164.17 312.22 166.28 302.39L166.31 302.25L166.36 302.11C173.6 282.79 184.51 268.53 194.96 258.66C205.37 248.84 207.8 247.38 215.71 243.43C215.71 243.43 219.21 241.45 221.65 241.45C224.09 241.45 227.59 243.43 227.59 243.43C235.5 247.38 237.93 248.84 248.34 258.66C258.79 268.53 269.69 282.79 276.94 302.11C276.94 302.12 276.96 302.12 276.96 302.11C276.71 300.95 275.07 293.27 277.02 302.39C279.13 312.22 278.94 329.18 261.1 376.73C256.66 388.56 253.33 398.55 250.52 406.9C247.71 415.23 245.39 422.01 242.99 427.31C240.6 432.61 238.02 436.67 234.59 439.37C231.1 442.12 226.92 443.32 221.65 443.32Z" fill="#FFE2AF"/>
<path d="M0 221.65C0 216.38 1.18995 212.21 3.94995 208.71C6.64995 205.28 10.7 202.71 16 200.31C21.31 197.91 28.09 195.59 36.41 192.79C44.77 189.97 54.75 186.64 66.59 182.2C114.14 164.37 131.1 164.18 140.93 166.28L141.07 166.31L141.21 166.37C160.52 173.61 174.79 184.51 184.65 194.96C194.48 205.38 195.93 207.8 199.89 215.72C199.89 215.72 201.87 219.21 201.87 221.66C201.87 224.1 199.89 227.59 199.89 227.59C195.93 235.51 194.48 237.93 184.65 248.35C174.79 258.8 160.52 269.7 141.21 276.94C141.19 276.95 141.2 276.97 141.21 276.97C142.37 276.72 150.04 275.07 140.93 277.03C131.1 279.13 114.14 278.94 66.59 261.11C54.75 256.67 44.77 253.34 36.41 250.52C28.09 247.72 21.31 245.4 16 243C10.71 240.6 6.64995 238.03 3.94995 234.6C1.18995 231.1 0 226.92 0 221.66V221.65Z" fill="#FFE2AF"/>
</svg>
